Coordinates
version=1
nRows=30
nColumns=30
inDegrees=yes

Units are S.I. units (second, meters, Newtons, ...)
Angles are in degrees.

endheader
time	floatyaw	floatroll	floatpitch	floatx	floaty	floatz	pro_sup_l	deviation_l	flexion_l	cmc_flexion_l	cmc_abduction_l	mp_flexion_l	ip_flexion_l	2mcp_flexion_l	2mcp_abduction_l	2pm_flexion_l	2md_flexion_l	3mcp_flexion_l	3mcp_abduction_l	3pm_flexion_l	3md_flexion_l	4mcp_flexion_l	4mcp_abduction_l	4pm_flexion_l	4md_flexion_l	5mcp_flexion_l	5mcp_abduction_l	5pm_flexion_l	5md_flexion_l
-1.495000	-2.172711	-3.701800	97.553456	-0.100741	-0.187787	-0.034250	86.566908	2.893264	-0.729553	14.240176	8.535150	-22.182522	-34.904246	38.051331	10.758390	46.332241	32.579929	22.231865	5.443148	45.312532	31.701147	11.135089	-4.681103	60.914918	42.112254	5.418677	-11.069075	60.807135	42.274112
-1.485000	-2.172711	-3.701800	97.553456	-0.100728	-0.187823	-0.034261	86.525002	2.883877	-0.753593	14.214938	8.547340	-22.183787	-34.901423	38.099321	10.738529	46.334617	32.580380	22.265505	5.439305	45.303399	31.702475	11.159120	-4.680625	60.924761	42.121269	5.425313	-11.054976	60.854045	42.291911
-1.475000	-2.172711	-3.701800	97.553456	-0.100717	-0.187858	-0.034275	86.482296	2.874740	-0.774885	14.186119	8.555674	-22.183860	-34.893789	38.142926	10.718578	46.343732	32.585039	22.299037	5.436106	45.294571	31.702766	11.178827	-4.678462	60.937283	42.132580	5.429672	-11.047717	60.902342	42.310225
-1.465000	-2.172711	-3.701800	97.553456	-0.100707	-0.187890	-0.034289	86.440681	2.864720	-0.791932	14.153612	8.562916	-22.181238	-34.880343	38.179123	10.703658	46.362670	32.595500	22.327011	5.437130	45.291175	31.705512	11.191849	-4.676060	60.953076	42.146094	5.432187	-11.051944	60.943326	42.324756
-1.455000	-2.172711	-3.701800	97.553456	-0.100698	-0.187917	-0.034301	86.401554	2.853203	-0.804660	14.117656	8.570181	-22.175134	-34.861008	38.207884	10.696179	46.390781	32.611259	22.346377	5.444207	45.295868	31.713106	11.198585	-4.674470	60.971337	42.160862	5.435642	-11.067692	60.971097	42.333366
-1.445000	-2.172711	-3.701800	97.553456	-0.100688	-0.187939	-0.034311	86.366447	2.841112	-0.814617	14.078678	8.574499	-22.166399	-34.836922	38.232294	10.694979	46.423036	32.629507	22.358448	5.456192	45.308030	31.725714	11.202821	-4.674036	60.989822	42.175219	5.441595	-11.088823	60.985274	42.337302
-1.435000	-2.172711	-3.701800	97.553456	-0.100677	-0.187958	-0.034318	86.337553	2.830913	-0.824422	14.037639	8.569135	-22.157754	-34.810646	38.256909	10.696333	46.452031	32.646244	22.368375	5.469593	45.324730	31.741398	11.210545	-4.674739	61.005743	42.187311	5.447609	-11.104813	60.990886	42.340486
-1.425000	-2.172711	-3.701800	97.553456	-0.100666	-0.187973	-0.034324	86.317180	2.825316	-0.836663	13.996510	8.547228	-22.152768	-34.785772	38.285452	10.696258	46.471441	32.657964	22.382453	5.480554	45.342375	31.757133	11.227238	-4.676769	61.017260	42.195929	5.447848	-11.105490	60.996033	42.347504
-1.415000	-2.172711	-3.701800	97.553456	-0.100652	-0.187987	-0.034329	86.306150	2.825436	-0.852755	13.958156	8.506850	-22.154108	-34.765868	38.319094	10.692738	46.478949	32.663000	22.404693	5.486842	45.358078	31.770126	11.255006	-4.680675	61.024581	42.201151	5.436856	-11.086280	61.008561	42.361442
-1.405000	-2.172711	-3.701800	97.553456	-0.100638	-0.188001	-0.034334	86.302337	2.829782	-0.872361	13.925336	8.454156	-22.162324	-34.753314	38.356065	10.686671	46.477155	32.661986	22.434524	5.488695	45.370555	31.778985	11.291215	-4.686892	61.029841	42.204348	5.413746	-11.050927	61.033076	42.382591
-1.395000	-2.172711	-3.701800	97.553456	-0.100622	-0.188016	-0.034339	86.300677	2.834844	-0.893671	13.899403	8.402216	-22.175949	-34.748673	38.392708	10.681103	46.472299	32.657436	22.466970	5.488253	45.380662	31.784399	11.329494	-4.695032	61.035918	42.207492	5.383813	-11.010090	61.069432	42.408516
-1.385000	-2.172711	-3.701800	97.553456	-0.100605	-0.188034	-0.034343	86.294918	2.836817	-0.914364	13.879697	8.365754	-22.192572	-34.750804	38.425490	10.679329	46.471619	32.652757	22.495256	5.488081	45.391366	31.788987	11.362590	-4.703581	61.045100	42.212283	5.356492	-10.976707	61.113353	42.435347
-1.375000	-2.172711	-3.701800	97.553456	-0.100588	-0.188056	-0.034346	86.280173	2.833280	-0.932666	13.864078	8.354579	-22.209897	-34.757460	38.452952	10.683023	46.480643	32.651073	22.514454	5.489718	45.406711	31.796216	11.385515	-4.710334	61.058448	42.219594	5.340953	-10.960653	61.158903	42.459596
-1.365000	-2.172711	-3.701800	97.553456	-0.100573	-0.188080	-0.034350	86.254955	2.823954	-0.947883	13.850173	8.369119	-22.226174	-34.765997	38.476436	10.691358	46.501376	32.654199	22.524079	5.493073	45.429848	31.808702	11.397364	-4.713328	61.075897	42.229393	5.341838	-10.965184	61.201515	42.479574
-1.355000	-2.172711	-3.701800	97.553456	-0.100560	-0.188104	-0.034354	86.221663	2.810407	-0.960205	13.836372	8.400226	-22.240159	-34.774015	38.499070	10.701449	46.531862	32.662097	22.528171	5.496914	45.460976	31.826716	11.401007	-4.711747	61.096699	42.240991	5.357401	-10.986547	61.239846	42.495668
-1.345000	-2.172711	-3.701800	97.553456	-0.100549	-0.188126	-0.034356	86.185297	2.795141	-0.970052	13.821913	8.433264	-22.251067	-34.779836	38.523677	10.709752	46.567073	32.672968	22.532835	5.500010	45.496469	31.847723	11.401079	-4.706300	61.119797	42.253395	5.380857	-11.016666	61.275419	42.509367
-1.335000	-2.172711	-3.701800	97.553456	-0.100540	-0.188143	-0.034358	86.151052	2.780577	-0.977591	13.806142	8.454534	-22.258744	-34.782767	38.551065	10.713611	46.600766	32.683990	22.542759	5.502088	45.530031	31.867412	11.401579	-4.698945	61.144033	42.265642	5.403992	-11.047304	61.310423	42.521724
-1.325000	-2.172711	-3.701800	97.553456	-0.100533	-0.188153	-0.034358	86.122091	2.768301	-0.982807	13.787769	8.457039	-22.263837	-34.783075	38.579800	10.712146	46.627674	32.692432	22.558815	5.503945	45.555618	31.881811	11.404459	-4.692121	61.168222	42.276991	5.420900	-11.073406	61.345311	42.532319
-1.315000	-2.172711	-3.701800	97.553456	-0.100526	-0.188158	-0.034356	86.098728	2.758812	-0.986094	13.765044	8.442791	-22.267600	-34.781681	38.607435	10.706133	46.645268	32.696695	22.578103	5.506711	45.570591	31.889350	11.409741	-4.687836	61.191153	42.286954	5.429811	-11.093820	61.377907	42.539515
-1.305000	-2.172711	-3.701800	97.553456	-0.100520	-0.188159	-0.034353	86.079488	2.751787	-0.988829	13.737049	8.420403	-22.271243	-34.779641	38.632087	10.697224	46.654446	32.696868	22.596153	5.510862	45.577069	31.891567	11.416651	-4.686974	61.211553	42.295193	5.432310	-11.109429	61.404634	42.541896
-1.295000	-2.172711	-3.701800	97.553456	-0.100514	-0.188160	-0.034348	86.063192	2.746663	-0.993297	13.705157	8.399385	-22.275193	-34.777587	38.653201	10.687163	46.658917	32.694582	22.609654	5.515738	45.580437	31.891946	11.424697	-4.689072	61.228086	42.301425	5.431039	-11.120589	61.422975	42.539916
-1.285000	-2.172711	-3.701800	97.553456	-0.100508	-0.188167	-0.034341	86.050414	2.743083	-1.001749	13.673181	8.384762	-22.278823	-34.775397	38.671180	10.677390	46.663587	32.692299	22.617955	5.519911	45.585883	31.893698	11.433892	-4.692597	61.239480	42.305474	5.427883	-11.126228	61.433398	42.536480
-1.275000	-2.172711	-3.701800	97.553456	-0.100504	-0.188178	-0.034331	86.043050	2.740920	-1.015058	13.645489	8.375468	-22.280971	-34.772297	38.686595	10.668994	46.672585	32.692312	22.622797	5.522057	45.595318	31.898013	11.444139	-4.695620	61.244841	42.307470	5.423814	-11.125323	61.439375	42.535837
-1.265000	-2.172711	-3.701800	97.553456	-0.100501	-0.188194	-0.034320	86.042288	2.739979	-1.031947	13.624062	8.366980	-22.281059	-34.767500	38.699878	10.662658	46.687715	32.695830	22.627041	5.521664	45.606636	31.903866	11.454567	-4.696640	61.244021	42.308011	5.419904	-11.119146	61.445562	42.541320
-1.255000	-2.172711	-3.701800	97.553456	-0.100501	-0.188210	-0.034309	86.046734	2.739803	-1.049473	13.606607	8.355489	-22.280122	-34.761051	38.711760	10.658328	46.707941	32.702492	22.633521	5.519132	45.615522	31.909217	11.463635	-4.695158	61.237812	42.308093	5.418018	-11.111799	61.455374	42.553384
-1.245000	-2.172711	-3.701800	97.553456	-0.100503	-0.188223	-0.034300	86.052277	2.739809	-1.064674	13.587303	8.340318	-22.280898	-34.754270	38.723929	10.654700	46.730107	32.710546	22.644608	5.515404	45.618410	31.912559	11.470211	-4.691701	61.227862	42.308762	5.420270	-11.108096	61.469287	42.569180
-1.235000	-2.172711	-3.701800	97.553456	-0.100506	-0.188231	-0.034295	86.053809	2.739566	-1.076384	13.559845	8.323517	-22.286667	-34.749288	38.739092	10.649110	46.750578	32.717688	22.662195	5.511492	45.615011	31.913933	11.474919	-4.687281	61.216441	42.310719	5.427775	-11.110460	61.484499	42.583897
-1.225000	-2.172711	-3.701800	97.553456	-0.100510	-0.188235	-0.034293	86.047537	2.738808	-1.085958	13.520898	8.307918	-22.299370	-34.747865	38.760098	10.638485	46.767169	32.722270	22.687406	5.508197	45.609361	31.915122	11.480578	-4.682640	61.206340	42.314190	5.440030	-11.117578	61.496093	42.592954
-1.215000	-2.172711	-3.701800	97.553456	-0.100514	-0.188238	-0.034293	86.032428	2.737142	-1.096449	13.472014	8.295327	-22.318135	-34.750236	38.788465	10.621250	46.780466	32.724252	22.719849	5.505948	45.608873	31.919096	11.491119	-4.677798	61.200874	42.319150	5.455545	-11.125889	61.499473	42.593861
-1.205000	-2.172711	-3.701800	97.553456	-0.100520	-0.188244	-0.034290	86.010239	2.733832	-1.110899	13.419111	8.285548	-22.339127	-34.754760	38.823272	10.599013	46.793820	32.725330	22.757106	5.504690	45.621433	31.928829	11.509494	-4.672242	61.203673	42.325697	5.472999	-11.132320	61.493247	42.587017
